# xmcd
#
# Track frame offsets:
#	150
#	16664
#	33430
#	50093
#	63449
#	76194
#	92685
#	109235
#	129014
#	152159
#	170211
#	187921
#
# Disc length: 2721 seconds
#
# Revision: 1
# Processed by: cddbd v1.5.2PL0 Copyright (c) Steve Scherf et al.
# Submitted via: audiograbber 1.83.01
#
DISCID=900a9f0c
DTITLE=Lorrie Singer and Bradley Kopp - Walk Tall
DYEAR=2005
DGENRE=Folk
TTITLE0=Rachel
TTITLE1='67 Pontiac
TTITLE2=If i could just get over you
TTITLE3=I start hurting all over again
TTITLE4=I know a goodbey
TTITLE5=As far your memory goes
TTITLE6=Backslider
TTITLE7=Savin' my sugar
TTITLE8=River don't rise
TTITLE9=Hannah's dream
TTITLE10=Walk tall
TTITLE11=Closing time
EXTD=
EXTT0=Jullie Miller
EXTT1=Gretchen Peters
EXTT2=Gretchen Peters
EXTT3=Hardell - Woody
EXTT4=Woody - Gunn
EXTT5=Beathard - frederick - Woody
EXTT6=Adams - Peters
EXTT7=Ims - Sherrill
EXTT8=McEntire
EXTT9=Trooper
EXTT10=
EXTT11=Peters
PLAYORDER=
